<svg width="46" height="47" viewBox="0 0 46 47" fill="none" xmlns="http://www.w3.org/2000/svg">
<g id="basil:cross-solid">
<rect y="0.5" width="46" height="46" rx="23" fill="white" fill-opacity="0.05"/>
<path id="Vector" d="M30.6197 17.5605L30.6197 17.5604L30.6165 17.5636L24.8588 23.3232L24.6822 23.4999L24.8588 23.6766L30.6113 29.4349C30.8192 29.6597 30.9324 29.9561 30.927 30.2624C30.9216 30.57 30.7969 30.8636 30.5794 31.0811C30.3618 31.2987 30.0683 31.4233 29.7606 31.4287C29.4544 31.4342 29.158 31.321 28.9332 31.1131L23.1769 25.3549L23.0002 25.1781L22.8234 25.3548L17.0632 31.1111C16.8385 31.3191 16.542 31.4322 16.2358 31.4268C15.9281 31.4214 15.6346 31.2968 15.417 31.0792C15.1995 30.8616 15.0748 30.5681 15.0694 30.2605C15.064 29.9542 15.1771 29.6578 15.3851 29.4331L21.1414 23.6767L21.3181 23.5L21.1415 23.3233L15.3857 17.5618L15.3858 17.5617L15.3793 17.5556C15.2626 17.4468 15.169 17.3157 15.1041 17.1701C15.0392 17.0244 15.0043 16.8672 15.0015 16.7077C14.9987 16.5483 15.028 16.3899 15.0878 16.242C15.1475 16.0942 15.2364 15.9598 15.3492 15.8471C15.4619 15.7343 15.5962 15.6454 15.7441 15.5857C15.892 15.526 16.0503 15.4966 16.2098 15.4995C16.3692 15.5023 16.5265 15.5372 16.6722 15.6021C16.8178 15.667 16.9489 15.7606 17.0576 15.8772L17.0575 15.8773L17.0638 15.8836L22.8233 21.6432L23.0001 21.8199L23.1769 21.6432L28.9384 15.8836L28.9384 15.8836L28.9414 15.8806C29.051 15.7672 29.182 15.6768 29.3269 15.6146C29.4718 15.5525 29.6277 15.5198 29.7854 15.5185C29.943 15.5172 30.0994 15.5473 30.2453 15.6071L30.3401 15.3757L30.2453 15.6071C30.3912 15.6669 30.5238 15.7551 30.6352 15.8666C30.7466 15.9782 30.8348 16.1108 30.8944 16.2568L31.1258 16.1622L30.8944 16.2568C30.954 16.4028 30.984 16.5591 30.9826 16.7168L31.2326 16.7191L30.9826 16.7168C30.9811 16.8745 30.9483 17.0303 30.886 17.1751L31.1156 17.2739L30.886 17.1751C30.8237 17.32 30.7332 17.451 30.6197 17.5605Z" fill="#FAFAFA" stroke="black" stroke-width="0.5"/>
</g>
</svg>
