<svg width="138" height="210" viewBox="0 0 138 210" fill="none" xmlns="http://www.w3.org/2000/svg">
<g id="Isolation_Mode" clip-path="url(#clip0_1_110)">
<path id="Vector" d="M205.577 162.172C207.631 167.122 201.589 166.962 198.316 166.73C187.767 166.418 177.222 166.082 166.674 165.795C128.221 164.67 89.782 163.814 51.3559 165.762C38.586 166.295 25.8462 167.478 13.0685 167.785C10.9284 167.779 8.65937 167.809 6.54272 167.332C5.499 167.097 4.49401 166.74 3.55837 166.193C-2.49744 162.045 8.21997 151.615 10.605 147.282C41.5765 104.223 71.5796 60.4531 104.156 18.579C104.151 18.5734 104.146 18.5658 104.141 18.5602C104.186 18.507 104.228 18.4533 104.272 18.3976C104.416 18.2161 104.56 18.0346 104.701 17.8522C104.785 17.7402 104.872 17.6287 104.953 17.5137C105.036 17.3972 105.12 17.2806 105.192 17.157C105.194 17.1487 105.199 17.1434 105.203 17.1356C105.334 16.9859 105.466 16.8367 105.603 16.6885C105.691 16.5992 105.783 16.5149 105.88 16.4342C105.968 16.3646 106.054 16.2944 106.148 16.2324C106.16 16.2264 106.173 16.2184 106.185 16.2125C106.226 16.1955 106.267 16.1807 106.31 16.1663C106.507 16.1081 106.707 16.0571 106.906 16.0015C106.944 15.9903 106.984 15.9796 107.024 15.9689C107.04 15.9815 107.058 15.9919 107.075 16.0024C107.229 16.0961 107.391 16.1566 107.566 16.1981C107.691 16.2263 107.818 16.2504 107.943 16.2765C108.057 16.3065 108.169 16.3448 108.28 16.3873C108.302 16.3966 108.325 16.4039 108.347 16.4132C112.496 21.4899 116.52 26.6739 120.564 31.8253C145.591 66.0714 166.065 103.391 189.616 138.639C194.556 146.741 200.748 154.029 205.575 162.172L205.577 162.172Z" fill="#55A665"/>
<path id="Vector 43" d="M79.9999 100C80.9999 100.5 96.7999 134.6 112 143" stroke="black" stroke-width="5"/>
<path id="Vector 44" d="M121 67C122 67.5 137.8 101.6 153 110" stroke="black" stroke-width="5"/>
</g>
<defs>
<clipPath id="clip0_1_110">
<rect width="199.68" height="169.739" fill="white" transform="matrix(0.975567 0.2197 -0.221275 0.975212 38.395 0.516113)"/>
</clipPath>
</defs>
</svg>
