<svg width="198" height="189" viewBox="0 0 198 189" fill="none" xmlns="http://www.w3.org/2000/svg">
<g id="Isolation_Mode" clip-path="url(#clip0_1_35)">
<path id="Vector" d="M179.132 80.8543C182.846 82.6402 179.296 85.6459 177.298 87.1906C171.082 92.4195 164.857 97.6334 158.654 102.876C136.004 121.944 113.498 141.159 92.4366 161.976C85.3787 168.828 78.6714 176.039 71.493 182.765C70.2614 183.859 68.9744 185.039 67.5152 185.851C66.7956 186.251 66.0357 186.562 65.2184 186.728C59.6175 187.453 60.4278 175.977 59.578 172.269C55.3043 131.696 50.1102 91.2114 47.3646 50.4949C47.3587 50.4944 47.352 50.4925 47.3461 50.4921C47.3447 50.4385 47.3418 50.3857 47.3382 50.3315C47.328 50.1535 47.3179 49.9754 47.3049 49.7989C47.2962 49.6913 47.2889 49.5829 47.2764 49.4755C47.2647 49.3658 47.2529 49.2561 47.2309 49.1484C47.2277 49.1427 47.2282 49.1368 47.2265 49.1302C47.2247 48.9775 47.2244 48.8239 47.227 48.6688C47.232 48.5723 47.2414 48.4771 47.2559 48.3809C47.2708 48.2958 47.2844 48.2114 47.306 48.1281C47.31 48.1184 47.3133 48.1072 47.3173 48.0975C47.3322 48.0667 47.348 48.0373 47.3652 48.0071C47.4487 47.8725 47.5376 47.7406 47.6234 47.6066C47.6393 47.5809 47.6566 47.5544 47.674 47.5279C47.6901 47.5265 47.7054 47.5235 47.7208 47.5206C47.8573 47.4953 47.9812 47.447 48.1028 47.3812C48.1892 47.3332 48.2739 47.2823 48.3595 47.2328C48.4402 47.1916 48.5241 47.1562 48.6096 47.1236C48.6271 47.1177 48.6437 47.1103 48.6611 47.1044C53.6431 47.889 58.6081 48.7992 63.5682 49.6803C95.4753 56.4909 126.343 67.3981 157.916 75.5399C164.901 77.6545 172.189 78.6598 179.13 80.8551L179.132 80.8543Z" fill="#55A665"/>
<path id="Vector 43" d="M75.1991 109.576C76.0293 109.35 102.565 120.807 115.593 117.832" stroke="black" stroke-width="5"/>
<path id="Vector 44" d="M81.8344 69.6304C82.6645 69.4045 109.2 80.8616 122.228 77.8867" stroke="black" stroke-width="5"/>
</g>
<defs>
<clipPath id="clip0_1_35">
<rect width="153.679" height="130.523" fill="white" transform="matrix(0.873891 -0.486123 0.484353 0.874873 0.361938 73.8486)"/>
</clipPath>
</defs>
</svg>
