<svg width="163" height="211" viewBox="0 0 163 211" fill="none" xmlns="http://www.w3.org/2000/svg">
<g id="Group 238272">
<path id="Vector 1" d="M69.5253 14.188L121.826 41.8C147.172 59.6194 162.256 88.6625 162.256 119.646V130.029C162.256 135.844 161.632 141.641 160.394 147.322L157.291 161.567C152.143 185.198 133.212 203.367 109.389 207.539C97.7308 209.581 85.7283 208.102 74.9144 203.291L60.8187 197.019C48.9878 191.755 35.8353 190.216 23.1086 192.606L19.8898 193.21C-3.97534 197.691 -28.1489 187.094 -41.0237 166.506C-46.8896 157.126 -50 146.286 -50 135.223V110.429C-50 94.9431 -46.7642 79.6286 -40.5 65.4667L-33.6728 50.0318C-24.7956 29.9625 -7.54317 14.8114 13.5047 8.60059C32.1923 3.08626 52.2949 5.09125 69.5253 14.188Z" fill="#6FB9D7"/>
<g id="Group">
<path id="Vector" d="M18.7645 87.0327C14.4832 85.3474 14.6968 79.9993 14.8843 76.1785C15.4325 72.9139 15.6247 65.1074 19.5857 64.3437C23.2453 61.4351 28.9079 63.0921 30.0755 67.686C31.7249 71.9358 33.2509 77.1637 30.74 81.3734C28.063 84.7699 23.3354 88.4305 18.7645 87.0327Z" fill="black"/>
<path id="Vector_2" d="M51.6556 51.5189C52.0471 51.2879 52.5455 51.1229 52.987 51.0734C53.0368 51.0663 53.0866 51.0616 53.1365 51.0569C52.5788 50.7882 52.0282 51.0946 51.6532 51.5189H51.6556ZM47.6329 71.4384C42.5921 69.878 40.805 63.8369 42.153 59.1628C42.8436 56.8011 43.2186 53.6497 45.5634 52.3274C47.799 45.2397 56.3855 43.5308 59.1669 51.0993C61.1344 57.9961 56.6584 72.7442 47.6305 71.4407L47.6329 71.4384Z" fill="black"/>
<path id="Vector_3" d="M52.3769 106.269C46.1329 103.942 47.6613 94.9217 49.2086 89.8729C50.68 85.9979 54.8902 80.1406 59.6272 82.6013C63.9964 85.4982 62.786 91.676 62.15 96.0931C61.5235 100.984 58.1345 107.11 52.3769 106.269Z" fill="black"/>
<path id="Vector_4" d="M79.088 86.613C73.8099 84.4916 75.8698 77.3403 76.036 72.9279C76.7337 68.4118 80.7089 58.7031 86.7014 60.8881C95.734 64.36 88.9963 89.1492 79.0856 86.613H79.088Z" fill="black"/>
<path id="Vector_5" d="M25.4975 120.67C22.2247 117.399 24.5838 107.054 26.6556 103.372C28.3644 99.8222 34.2738 98.5164 36.227 102.563C38.4839 107.311 37.5679 114.247 34.6559 118.57C32.7098 121.436 28.3478 123.482 25.4951 120.668L25.4975 120.67Z" fill="black"/>
<path id="Vector_6" d="M-2.70405 122.44C-7.99879 120.263 -6.54873 113.274 -5.89371 108.793C-4.96814 105.569 -4.95865 99.6454 -1.80458 97.9011C1.91194 92.9065 7.15922 97.7762 7.54369 102.502C9.04834 108.824 6.14347 124.06 -2.70405 122.44Z" fill="black"/>
<path id="Vector_7" d="M92.9272 119.888C92.9033 119.928 92.8794 119.97 92.8555 120.01C92.8483 120.015 92.8412 120.02 92.834 120.022C92.8651 119.977 92.8985 119.93 92.9296 119.885L92.9272 119.888Z" fill="black"/>
<path id="Vector_8" d="M98.76 104.635C98.7814 104.654 98.8028 104.673 98.8241 104.689C98.7244 104.845 98.6271 105.001 98.5275 105.156C98.6058 104.982 98.6841 104.81 98.76 104.635Z" fill="black"/>
<path id="Vector_9" d="M100.225 102.139C100.191 102.151 100.158 102.161 100.125 102.168C100.158 102.158 100.191 102.149 100.225 102.139Z" fill="black"/>
<path id="Vector_10" d="M53.2196 140.689C48.8077 138.391 50.3147 132.399 50.9484 128.427C51.8051 125.212 51.9689 119.485 55.6973 118.344C58.0919 114.881 63.7664 112.866 66.6356 116.854C70.5563 123.504 62.9144 144.517 53.2172 140.689H53.2196Z" fill="black"/>
<path id="Vector_11" d="M86.3573 118.73C79.1355 117.955 80.1204 109.432 81.8932 104.407C82.7476 102.262 82.833 98.1132 86.0274 98.4573C87.7694 94.844 93.1377 93.293 94.723 97.8563C97.1912 104.034 94.7752 118.577 86.3573 118.728V118.73Z" fill="black"/>
<path id="Vector_12" d="M30.4954 140.663C29.2993 137.931 33.5498 135.817 35.026 138.407C36.7513 141.304 31.8221 143.781 30.4954 140.663Z" fill="black"/>
<path id="Vector_13" d="M27.8516 158.18C26.7932 158.091 25.8795 157.49 25.3478 156.58C24.8779 155.774 24.8613 154.84 24.923 153.938C23.2926 150.364 25.1176 146.178 26.3256 142.711C26.9213 140.715 27.199 138.332 28.6538 136.766C30.6663 132.762 36.4428 132.354 37.0718 137.455C38.1089 144.033 36.2743 157.605 27.8493 158.178L27.8516 158.18Z" fill="black"/>
<path id="Vector_14" d="M75.9292 157.322C68.7785 155.46 75.7773 138.815 79.0286 135.376C81.5301 131.489 86.6705 131.821 88.0233 136.418C89.0319 140.797 87.5937 145.455 85.8636 149.438C85.8755 149.415 85.8874 149.389 85.9016 149.365L85.9253 149.318C84.1098 153.106 80.7564 158.084 75.9292 157.32V157.322Z" fill="black"/>
<path id="Vector_15" d="M101.776 136.512C96.9706 134.593 101.432 122.249 103.822 119.468C105.187 116.498 106.756 112.175 110.629 112.083C112.67 112.121 114.113 113.962 114.355 115.862C115.52 121.823 109.606 138.82 101.779 136.512H101.776Z" fill="black"/>
<path id="Vector_16" d="M109.395 95.1104C104.2 93.4698 105.125 87.3957 106.39 83.3227C107.249 81.2438 107.002 77.885 109.406 76.9422C110.735 74.7501 114.25 74.0053 116.085 75.9404C124.954 77.2556 116.685 97.6725 109.395 95.1104Z" fill="black"/>
<path id="Vector_17" d="M-3.63205 162.081C-8.32398 160.733 -7.51945 154.711 -7.26314 150.916C-6.52268 148.187 -7.86832 139.878 -3.13604 141.438C-0.3878 133.929 7.67891 134.85 8.239 142.843C8.68043 148.91 4.24718 163.314 -3.63205 162.081Z" fill="black"/>
<path id="Vector_18" d="M1.22849 148.74C1.16441 146.204 1.91436 143.329 0.715863 140.99C-1.37498 141.921 -2.6779 144.25 -3.31631 146.27C-3.95471 148.929 -8.15538 148.415 -8.09843 145.655C-7.70446 143.258 -6.37069 140.997 -4.8257 139.14C0.559229 133.403 6.14826 136.083 6.20047 143.637C5.97026 145.846 6.77005 148.568 5.37932 150.449C3.9696 151.962 1.12169 150.826 1.22611 148.74H1.22849Z" fill="black"/>
<path id="Vector_19" d="M-4.35808 163.142C-5.63727 161.928 -4.9063 160.295 -4.08515 159.064C-3.39216 157.398 -2.23876 155.097 -0.0387425 156.036C2.16839 156.985 1.41369 159.394 0.386071 160.969C-0.268949 162.942 -2.412 164.983 -4.35808 163.142Z" fill="black"/>
</g>
</g>
</svg>
