<svg width="252" height="35" viewBox="0 0 252 35" fill="none" xmlns="http://www.w3.org/2000/svg">
<g id="Logo (traced)">
<g id="Gray">
<path id="Vector" d="M205.848 3.33081C205.438 3.40322 205.414 3.86184 205.414 8.93081C205.414 12.5032 205.317 14.5067 205.172 14.6032C205.028 14.6998 204.424 14.3136 203.821 13.7584C203.217 13.2032 202.107 12.4549 201.359 12.117C200.128 11.5377 199.717 11.4653 197.207 11.4653C194.6 11.4653 194.334 11.5136 192.838 12.2136C190.786 13.2032 189.507 14.3618 188.566 16.0998C187.576 17.9825 187.262 19.3101 187.262 21.4825C187.262 23.5825 187.576 25.0067 188.469 26.6239C189.217 27.9998 191.559 30.2687 192.066 30.0756C192.259 30.0032 192.355 30.0274 192.283 30.1239C192.09 30.4377 193.586 31.0653 195.252 31.4032C197.159 31.7653 200.103 31.5722 201.697 30.9687C203.29 30.3412 205.221 29.0136 205.028 28.6756C204.931 28.5067 204.979 28.4825 205.124 28.5791C205.486 28.7963 207.2 26.2136 207.007 25.7067C206.934 25.4894 206.959 25.3929 207.103 25.4653C207.248 25.5377 207.369 25.4653 207.393 25.2963C207.441 24.7412 207.514 24.5239 207.707 24.0653C207.803 23.848 207.828 23.3653 207.779 23.0515C207.707 22.7136 207.755 22.448 207.852 22.448C207.972 22.448 208.069 18.1515 208.069 12.9136C208.069 4.00667 208.045 3.37908 207.659 3.35495C207.417 3.35495 207.007 3.30667 206.741 3.28253C206.476 3.25839 206.066 3.28253 205.848 3.33081ZM200.055 13.9998C203.459 14.8929 205.583 18.0791 205.366 21.9653C205.221 24.1136 204.545 25.7308 203.169 27.1067C201.624 28.6515 200.393 29.086 197.569 29.086C195.421 29.086 195.01 29.0136 193.924 28.4343C193.272 28.0963 192.331 27.3722 191.848 26.8412C191.366 26.3101 190.931 25.9239 190.859 25.9722C190.81 26.0205 190.762 25.9239 190.738 25.7791C190.738 25.6101 190.497 24.8136 190.231 24.017C189.869 22.9067 189.797 22.1584 189.869 20.8791C190.038 18.417 190.062 18.3446 190.231 18.3446C190.328 18.3446 190.521 18.0308 190.69 17.6205C191.076 16.6549 193.803 14.1687 194.552 14.0722C194.745 14.048 195.397 13.9274 196 13.8067C197.134 13.5653 198.679 13.6377 200.055 13.9998Z" fill="#FAFAFA"/>
<path id="Vector_2" d="M213.234 4.10334C212.607 4.34472 211.931 5.26196 211.931 5.84127C211.931 6.56541 212.438 7.41024 213.066 7.6999C213.91 8.0861 214.441 8.03783 215.166 7.45852C215.672 7.07231 215.793 6.75852 215.793 5.93783C215.793 4.46541 214.562 3.59645 213.234 4.10334Z" fill="#FAFAFA"/>
<path id="Vector_3" d="M27.0344 19.1895V31.1619L28.3137 31.0895L29.5689 31.017V19.1895V7.36187L28.3137 7.28945L27.0344 7.21704V19.1895Z" fill="#FAFAFA"/>
<path id="Vector_4" d="M11.3448 11.4171C5.96207 12.093 2.34138 16.6309 2.75173 22.2068C2.92069 24.4516 3.47587 26.093 4.68276 27.7102C5.57587 28.9413 7.7 30.5585 8.56897 30.7033C8.83449 30.7516 9.12414 30.8723 9.22069 30.993C9.31725 31.1378 9.8 31.2344 10.331 31.2344C10.8621 31.2585 11.2483 31.3309 11.1759 31.4275C11.0069 31.7413 14.5069 31.6206 15.931 31.2826C18.0069 30.7999 20.7103 29.2309 20.3724 28.6999C20.3 28.5792 20.3724 28.5068 20.5655 28.5309C20.7345 28.5792 20.8552 28.4585 20.8069 28.2895C20.7828 28.0964 20.8552 28.024 20.9759 28.1206C21.4103 28.362 23.1966 25.0551 22.8345 24.693C22.569 24.4275 20.4207 24.6447 20.2276 24.9344C20.131 25.0792 20.1069 25.2723 20.1552 25.3447C20.2035 25.4171 19.5759 26.1413 18.7552 26.9378C17.5966 28.0723 16.969 28.4826 15.931 28.7964C13.3 29.593 10.4035 29.2309 8.44828 27.8792C7.55518 27.2516 6.03449 25.3688 6.03449 24.8861C6.03449 24.7413 5.93793 24.6206 5.84138 24.6206C5.57587 24.6206 5.43104 23.5585 5.43104 21.2413C5.43104 19.4792 5.52759 18.9964 6.1069 17.8137C7.41035 15.1826 9.94483 13.662 13.0345 13.6861C16.0759 13.7102 18.2966 14.8447 19.7207 17.0654C20.5172 18.3206 20.5414 18.3447 21.7241 18.3447C22.5448 18.3447 22.931 18.2482 22.931 18.0309C22.9069 17.3309 21.9172 15.6171 20.8793 14.5068C18.4897 11.9482 15.2793 10.9102 11.3448 11.4171Z" fill="#FAFAFA"/>
<path id="Vector_5" d="M42.2896 11.3688C38.9344 11.7791 36.0862 13.8067 34.5655 16.8481C33.6965 18.6584 33.6724 18.7309 33.6724 21.4826C33.6724 24.0895 33.7206 24.355 34.4206 25.8274C36.3758 29.8826 39.8999 31.8378 44.7758 31.5481C46.0551 31.4757 46.9724 31.3309 47.0206 31.1619C47.0689 31.0171 47.2137 30.9447 47.3344 31.0171C47.6482 31.2343 49.6275 30.2929 50.7379 29.3998C51.8965 28.4826 53.1034 26.8895 53.1034 26.2619C53.1034 25.8998 52.9103 25.8274 51.9931 25.8274C50.9793 25.8274 50.7379 25.9481 49.4586 27.155C47.7931 28.6757 46.3931 29.2067 43.9068 29.2067C42.1931 29.2067 40.7689 28.8205 39.3689 27.9516C38.8862 27.6378 38.4034 27.4447 38.2586 27.4688C38.1379 27.5171 38.0896 27.4688 38.1862 27.3964C38.2827 27.2998 38.1137 26.8653 37.7999 26.455C36.9551 25.3205 36.3758 24.1136 36.2793 23.2447C36.2068 22.5929 36.2793 22.4481 36.7379 22.3274C37.0517 22.255 40.7448 22.2309 44.9689 22.255C49.1689 22.3033 52.6206 22.2791 52.6206 22.2067C52.6206 22.1343 52.9827 22.086 53.4172 22.086H54.1896L54.1655 20.6136C54.1655 19.7929 54.0689 18.924 53.9482 18.6826C53.8517 18.4412 53.7068 18.0067 53.6586 17.7653C53.4896 16.8481 52.2586 14.9171 51.2689 13.9998C48.9758 11.8998 45.7896 10.9584 42.2896 11.3688ZM46.8758 14.1447C48.9758 14.8205 51.5827 17.8619 51.3655 19.3826C51.2931 19.9136 51.2689 19.9136 43.9793 19.986C37.4862 20.0343 36.6655 20.0102 36.5206 19.6481C36.2551 18.9481 36.931 17.4516 38.0172 16.2205C40.2379 13.7584 43.4241 13.0102 46.8758 14.1447Z" fill="#FAFAFA"/>
<path id="Vector_6" d="M66.5724 11.2483C66.5241 11.2724 65.8966 11.369 65.1724 11.4414C63.6759 11.5862 60.1759 13.2276 60.2966 13.7345C60.3207 13.9034 60.2483 13.9759 60.1276 13.9034C59.5483 13.5414 57.0138 17.5 57.3034 18.2724C57.3759 18.4655 57.3517 18.5379 57.231 18.4655C56.869 18.2724 56.6517 20.3241 56.7724 22.569C56.869 24.2103 57.0138 24.8621 57.6414 26.1414C58.7759 28.4345 61.1897 30.6552 62.8793 30.969C63.1448 31.0172 63.5793 31.1621 63.8448 31.2828C64.1103 31.4034 65.4621 31.5 66.8621 31.5C69.2517 31.5 69.4931 31.4517 71.0138 30.7034C72.0759 30.1966 72.969 29.5207 73.5483 28.8207C74.0552 28.2414 74.5621 27.7828 74.7069 27.831C74.8276 27.8793 74.9966 28.6034 75.069 29.4724L75.1897 31.0172L76.3483 31.0897L77.531 31.1621L77.4345 25.1759C77.3379 19.3586 77.0965 17.3793 76.4931 17.7655C76.3724 17.8379 76.3483 17.7414 76.4207 17.5483C76.4931 17.3552 76.3966 17.0414 76.2276 16.8724C76.0586 16.6793 75.8897 16.3655 75.8414 16.1724C75.5517 14.8448 72.3414 12.3345 70.1207 11.7069C69.0345 11.3931 66.7172 11.1034 66.5724 11.2483ZM70.531 14.4103C71.4241 14.7966 72.2931 15.4483 72.9207 16.1483C74.0069 17.3793 74.2483 17.6931 74.2724 17.8621C74.2724 17.9345 74.4172 18.4172 74.5621 18.9483C74.9966 20.5414 74.9 22.9793 74.3207 24.5483C72.6552 28.9655 66.8862 30.631 62.5414 27.9517C62.0586 27.6379 61.6 27.4207 61.4793 27.469C61.3828 27.4931 61.3345 27.4448 61.3586 27.3483C61.3828 27.2276 61.0448 26.6241 60.6345 25.9483C58.631 22.8586 58.8724 18.8034 61.1897 16.2207C63.5552 13.6138 67.1517 12.9138 70.531 14.4103Z" fill="#FAFAFA"/>
<path id="Vector_7" d="M137.61 11.3929C135.921 11.6584 134.521 12.286 133.507 13.2998C132.614 14.1929 131.431 16.5101 131.672 16.8963C131.745 17.017 131.697 17.1377 131.576 17.1377C131.383 17.1377 131.31 19.3825 131.31 24.1377V31.1377H132.493H133.7L133.772 24.4274C133.845 18.6342 133.917 17.6205 134.279 16.7756C134.834 15.5687 135.534 14.7963 136.645 14.217C138.117 13.4687 139.01 13.4446 141.69 14.048C142.317 14.1929 143.645 15.6894 144.176 16.848C144.683 17.9101 144.707 18.3929 144.779 24.5722L144.852 31.1377H146.034H147.193L147.29 24.548C147.386 17.186 147.483 16.6791 149.245 14.9894C151.297 13.0342 155.134 13.2756 156.969 15.448C158.176 16.848 158.345 18.0791 158.345 24.9101V31.1377H159.552H160.759L160.783 25.1515C160.807 21.8687 160.783 19.0929 160.759 18.948C160.734 18.8274 160.686 18.248 160.638 17.6929C160.517 16.317 159.576 14.3136 158.562 13.2998C157.138 11.8756 155.931 11.4653 153.034 11.4653C150.741 11.4653 150.379 11.5377 149.269 12.117C147.99 12.7929 146.662 14.0963 146.397 14.9411C146.203 15.5929 145.938 15.5929 145.624 14.8929C144.49 12.3825 141.038 10.886 137.61 11.3929Z" fill="#FAFAFA"/>
<path id="Vector_8" d="M171.862 11.5138C171.669 11.5621 171.331 11.6827 171.138 11.7552C170.945 11.8276 170.631 11.9241 170.462 11.9724C169.521 12.1655 167.903 13.2276 166.841 14.3379C164.935 16.3655 164.162 18.2483 164.09 21.0483C164.041 23.2207 164.331 24.5241 165.176 26.2621C165.972 27.9276 168.29 30.2931 168.893 30.0759C169.086 30.0034 169.183 30.0276 169.11 30.1241C168.917 30.4379 170.414 31.0655 172.079 31.4034C173.986 31.7655 176.931 31.5724 178.548 30.9448C180.286 30.2931 182.072 28.9172 182.941 27.5896C183.979 26.0207 183.931 25.8276 182.507 25.8276C181.372 25.8276 181.228 25.9 180.021 27.1069C179.176 27.9517 178.379 28.4827 177.655 28.7241C177.052 28.8931 176.497 29.1103 176.4 29.1827C176.303 29.2793 175.266 29.2793 174.107 29.1827C171.597 29.0138 170.003 28.3138 168.676 26.8414C168.193 26.3103 167.735 25.9483 167.638 26.0207C167.541 26.1172 167.517 26.069 167.541 25.9483C167.59 25.8034 167.397 25.0793 167.155 24.3069C166.841 23.3414 166.769 22.7862 166.914 22.5448C167.131 22.231 168.217 22.1827 174.517 22.231C183.762 22.2793 184.438 22.2793 184.703 22.0138C184.848 21.869 184.824 21.0241 184.679 19.9138C184.1 15.7379 181.493 12.7207 177.535 11.6827C176.376 11.369 172.61 11.2483 171.862 11.5138ZM176.448 13.8552C176.786 13.8793 177.535 14.169 178.138 14.4827C178.741 14.7965 179.224 15.0138 179.224 14.9655C179.224 14.9172 179.61 15.2552 180.069 15.7138C180.552 16.1724 180.89 16.6069 180.841 16.7034C180.793 16.8241 180.866 16.8965 180.986 16.8965C181.324 16.8965 182.145 19.5034 181.855 19.7931C181.614 20.0345 167.445 20.1793 167.035 19.9138C166.793 19.769 166.817 18.3448 167.059 18.3448C167.155 18.3448 167.348 18.031 167.517 17.6207C168 16.4862 170.148 14.6034 171.5 14.169C173.431 13.5414 173.672 13.5414 176.448 13.8552Z" fill="#FAFAFA"/>
<path id="Vector_9" d="M226.052 11.7552C223.131 12.8172 221.321 14.4345 220.066 17.1138C219.366 18.5621 219.317 18.9241 219.317 21.2414C219.317 23.7517 219.486 24.9586 219.921 25.4897C220.041 25.6345 220.066 25.8276 219.969 25.9C219.897 25.9966 219.945 26.069 220.114 26.069C220.283 26.069 220.355 26.1655 220.283 26.2862C220.066 26.6483 221.731 28.7241 223.01 29.6897C224.845 31.0897 226.317 31.5 229.31 31.5C231.7 31.5 231.941 31.4517 233.486 30.7034C234.524 30.1724 235.417 29.5207 235.997 28.8207C236.503 28.2414 237.01 27.7828 237.155 27.831C237.276 27.8793 237.445 28.6034 237.517 29.4724L237.638 31.0172L238.797 31.0897L239.931 31.1621V25.7793C239.931 22.8103 239.81 19.9138 239.666 19.3345C239.303 17.6931 238.241 15.7379 237.035 14.4828C236.021 13.4207 234.066 12.0931 233.366 11.9724C233.197 11.9483 232.883 11.8276 232.69 11.7069C232.497 11.5862 231.193 11.4414 229.793 11.3931C227.838 11.3448 226.993 11.4414 226.052 11.7552ZM231.603 13.8793C233.607 14.4103 235.997 16.2448 236.431 17.5966C236.503 17.8862 236.672 18.1034 236.769 18.1034C236.866 18.1034 236.962 18.2483 236.962 18.3931C236.986 18.5621 237.083 19.3345 237.203 20.1069C237.348 20.9034 237.348 21.9655 237.252 22.6414C237.131 23.269 237.01 23.9931 236.986 24.2586C236.938 24.5241 236.866 24.7897 236.769 24.8621C236.697 24.9345 236.407 25.3931 236.093 25.8759C235.803 26.3586 235.248 27.0345 234.862 27.3483C234.476 27.6862 234.235 28.0241 234.331 28.1207C234.428 28.2172 234.403 28.2414 234.259 28.2172C234.138 28.169 233.39 28.3862 232.641 28.6759C230.759 29.3759 228.393 29.4241 226.679 28.7724C225.955 28.4828 225.279 28.3138 225.159 28.3862C225.038 28.4586 224.99 28.4345 225.014 28.3138C225.062 28.1931 224.7 27.7586 224.217 27.3483C223.083 26.3345 222.166 24.5724 221.852 22.8103C221.61 21.4345 221.61 21.1207 221.972 19.431C222.407 17.4034 224.29 15.0862 226.124 14.3138C227.814 13.6138 229.914 13.4448 231.603 13.8793Z" fill="#FAFAFA"/>
<path id="Vector_10" d="M81.4897 11.9966C81.2483 12.2621 81.3449 22.8586 81.6345 24.3793C82.3104 28.0966 84.8207 30.6552 88.5621 31.4035C90.9759 31.8621 95.5863 31.3552 95.5863 30.6069C95.5863 30.4862 95.6828 30.4379 95.8035 30.5103C96.0932 30.7035 97.7828 29.4241 98.6518 28.3621C99.0621 27.8552 99.6656 26.6724 99.9794 25.731C100.486 24.1379 100.535 23.631 100.535 17.9828V11.9483L99.2794 11.8759L98.0483 11.8034L97.9518 18.031L97.8794 24.2586L97.2035 25.6345C96.0207 28.0724 94.0173 29.2069 91.0001 29.2069C87.9828 29.2069 85.9794 28.0724 84.7966 25.6345L84.1207 24.2586L84.0483 18.031L83.9759 11.8276H82.8173C82.1897 11.8276 81.5863 11.9 81.4897 11.9966Z" fill="#FAFAFA"/>
<path id="Vector_11" d="M104.01 11.8757C103.817 12.5033 103.986 13.1309 104.686 14.6757C105.169 15.6895 105.603 16.5826 105.7 16.655C105.772 16.7274 105.893 16.9929 105.917 17.2584C105.966 17.524 106.255 18.224 106.569 18.8274C106.883 19.4309 107.486 20.7584 107.921 21.7722C108.355 22.786 108.814 23.5584 108.934 23.486C109.079 23.4136 109.103 23.4619 109.007 23.6067C108.862 23.8481 111.517 30.1964 112.048 30.8481C112.362 31.2102 115.066 31.186 115.331 30.7998C115.548 30.4378 120.714 19.0205 120.786 18.7067C120.834 18.5619 121.414 17.2826 122.09 15.8343C122.79 14.4102 123.272 13.1309 123.2 13.0102C123.128 12.8895 123.2 12.7929 123.321 12.7929C123.466 12.7929 123.586 12.5757 123.586 12.286C123.586 11.8516 123.466 11.8033 122.331 11.8757L121.052 11.9481L117.552 19.9136C115.331 24.9584 113.931 27.8791 113.714 27.8791C113.497 27.8791 112.869 26.7688 112.145 25.1033C111.493 23.5826 110.841 22.255 110.721 22.1826C110.6 22.1102 110.528 21.9653 110.552 21.8688C110.648 21.6033 109.272 18.4895 109.007 18.2964C108.862 18.1998 108.814 18.1033 108.91 18.1033C109.079 18.1033 106.786 12.6481 106.376 12.1171C106.183 11.8757 104.083 11.6584 104.01 11.8757Z" fill="#FAFAFA"/>
<path id="Vector_12" d="M212.703 21.4102L212.776 31.0171H213.983H215.19V21.4826V11.9481L213.91 11.8757L212.655 11.8033L212.703 21.4102Z" fill="#FAFAFA"/>
</g>
</g>
</svg>
