<svg width="32" height="32" viewBox="0 0 32 32" fill="none" xmlns="http://www.w3.org/2000/svg">
<circle cx="16" cy="16" r="16" fill="#FAFAFA" fill-opacity="0.15"/>
<path d="M25.9407 10.8281C25.2317 11.1418 24.4797 11.3479 23.7097 11.4396C24.521 10.9537 25.128 10.1895 25.4176 9.2894C24.6557 9.74285 23.8203 10.0606 22.9506 10.2325C22.3658 9.60679 21.5906 9.1918 20.7456 9.05207C19.9006 8.91234 19.033 9.0557 18.2779 9.45986C17.5228 9.86403 16.9223 10.5064 16.5699 11.287C16.2175 12.0676 16.1328 12.9428 16.3291 13.7765C14.7838 13.6992 13.272 13.2977 11.892 12.5981C10.5119 11.8986 9.29441 10.9166 8.31853 9.7159C7.97314 10.3091 7.79163 10.9835 7.7926 11.67C7.7926 13.0173 8.47928 14.2076 9.52091 14.9045C8.90394 14.8851 8.30055 14.7185 7.76101 14.4186V14.466C7.76098 15.3634 8.0714 16.2333 8.6396 16.928C9.2078 17.6227 9.99881 18.0995 10.8785 18.2775C10.3057 18.4329 9.70516 18.4558 9.12229 18.3444C9.37031 19.1169 9.85376 19.7925 10.5049 20.2766C11.1561 20.7606 11.9424 21.0289 12.7536 21.0437C11.9474 21.6769 11.0242 22.145 10.037 22.4212C9.04974 22.6973 8.01774 22.7761 7 22.6531C8.77637 23.7954 10.8442 24.4019 12.9562 24.4C20.1054 24.4 24.0136 18.4782 24.0136 13.3426C24.0136 13.1753 24.0099 13.0062 24.0024 12.8399C24.7629 12.2901 25.4193 11.6083 25.9407 10.8281Z" fill="#FAFAFA"/>
</svg>
